<svg width="99" height="20" viewBox="0 0 99 20" fill="none" xmlns="http://www.w3.org/2000/svg">
<path d="M0.580256 19V0.818181H12.6186V3.98757H4.42436V8.31996H11.8196V11.4893H4.42436V19H0.580256ZM18.8509 19.2575C17.9808 19.2575 17.2055 19.1065 16.5249 18.8047C15.8442 18.4969 15.3056 18.0442 14.9091 17.4464C14.5185 16.8427 14.3232 16.091 14.3232 15.1914C14.3232 14.4338 14.4622 13.7976 14.7404 13.2827C15.0186 12.7678 15.3974 12.3535 15.8768 12.0398C16.3562 11.7261 16.9007 11.4893 17.5103 11.3295C18.1258 11.1697 18.771 11.0573 19.4457 10.9922C20.2388 10.9093 20.878 10.8324 21.3633 10.7614C21.8486 10.6844 22.2008 10.572 22.4197 10.424C22.6387 10.276 22.7482 10.0571 22.7482 9.76705V9.71378C22.7482 9.15152 22.5707 8.7165 22.2156 8.40874C21.8664 8.10097 21.3692 7.94709 20.7241 7.94709C20.0434 7.94709 19.5019 8.09801 19.0994 8.39986C18.697 8.69579 18.4306 9.06866 18.3004 9.51847L14.8026 9.23438C14.9801 8.40578 15.3293 7.68963 15.8501 7.08594C16.371 6.47633 17.0427 6.00876 17.8654 5.68324C18.694 5.3518 19.6528 5.18608 20.7418 5.18608C21.4994 5.18608 22.2244 5.27486 22.9169 5.45241C23.6153 5.62997 24.2338 5.90518 24.7724 6.27805C25.3169 6.65092 25.746 7.13033 26.0597 7.71626C26.3733 8.29628 26.5302 8.99171 26.5302 9.80256V19H22.9435V17.109H22.837C22.618 17.5352 22.325 17.911 21.9581 18.2365C21.5911 18.5561 21.1502 18.8076 20.6353 18.9911C20.1204 19.1687 19.5256 19.2575 18.8509 19.2575ZM19.9339 16.6474C20.4903 16.6474 20.9815 16.5379 21.4077 16.3189C21.8338 16.094 22.1682 15.7921 22.4109 15.4134C22.6535 15.0346 22.7749 14.6055 22.7749 14.1261V12.679C22.6565 12.7559 22.4937 12.8269 22.2866 12.892C22.0853 12.9512 21.8575 13.0075 21.603 13.0607C21.3485 13.1081 21.094 13.1525 20.8395 13.1939C20.585 13.2294 20.3542 13.262 20.147 13.2915C19.7031 13.3567 19.3155 13.4602 18.984 13.6023C18.6526 13.7443 18.3951 13.9367 18.2116 14.1793C18.0282 14.4161 17.9364 14.712 17.9364 15.0671C17.9364 15.582 18.1229 15.9756 18.4957 16.2479C18.8745 16.5142 19.3539 16.6474 19.9339 16.6474ZM29.3933 19V16.745L36.0694 8.47976V8.3821H29.6241V5.36364H40.6238V7.8228L34.356 15.8839V15.9815H40.8546V19H29.3933Z" fill="black"/>
<path d="M53.6808 6.04723C53.6098 5.33108 53.305 4.77474 52.7664 4.3782C52.2278 3.98165 51.4969 3.78338 50.5736 3.78338C49.9462 3.78338 49.4165 3.87216 48.9845 4.04972C48.5524 4.22135 48.221 4.46106 47.9901 4.76882C47.7652 5.07659 47.6528 5.42578 47.6528 5.81641C47.641 6.14193 47.709 6.42602 47.857 6.66868C48.0109 6.91134 48.221 7.12145 48.4873 7.29901C48.7536 7.47064 49.0614 7.62157 49.4106 7.75178C49.7598 7.87607 50.1327 7.9826 50.5292 8.07138L52.1627 8.462C52.9558 8.63956 53.6838 8.8763 54.3467 9.17223C55.0096 9.46816 55.5837 9.83215 56.069 10.2642C56.5543 10.6963 56.9301 11.2053 57.1965 11.7912C57.4687 12.3771 57.6078 13.0489 57.6137 13.8065C57.6078 14.9192 57.3237 15.8839 56.7615 16.7006C56.2051 17.5115 55.4002 18.1418 54.3467 18.5916C53.2991 19.0355 52.0355 19.2575 50.5558 19.2575C49.088 19.2575 47.8096 19.0326 46.7206 18.5827C45.6375 18.1329 44.7912 17.4671 44.1816 16.5852C43.5779 15.6974 43.2612 14.5996 43.2316 13.2915H46.9514C46.9929 13.9012 47.1675 14.4102 47.4752 14.8185C47.7889 15.221 48.2062 15.5258 48.727 15.733C49.2538 15.9342 49.8486 16.0348 50.5115 16.0348C51.1625 16.0348 51.7277 15.9401 52.2071 15.7507C52.6924 15.5613 53.0683 15.2979 53.3346 14.9606C53.6009 14.6232 53.7341 14.2356 53.7341 13.7976C53.7341 13.3892 53.6128 13.0459 53.3701 12.7678C53.1334 12.4896 52.7842 12.2528 52.3225 12.0575C51.8668 11.8622 51.3075 11.6847 50.6446 11.5249L48.6649 11.0277C47.132 10.6548 45.9216 10.0719 45.0338 9.27876C44.146 8.48568 43.7051 7.41738 43.711 6.07386C43.7051 4.97301 43.9981 4.01124 44.5899 3.18857C45.1877 2.36589 46.0074 1.72372 47.0491 1.26207C48.0908 0.800426 49.2745 0.569602 50.6002 0.569602C51.9497 0.569602 53.1275 0.800426 54.1336 1.26207C55.1457 1.72372 55.9329 2.36589 56.4951 3.18857C57.0574 4.01124 57.3474 4.96413 57.3651 6.04723H53.6808ZM66.3429 19.2663C64.9402 19.2663 63.7328 18.9822 62.7207 18.4141C61.7145 17.84 60.9392 17.0291 60.3947 15.9815C59.8502 14.928 59.5779 13.6822 59.5779 12.244C59.5779 10.8413 59.8502 9.6102 60.3947 8.55078C60.9392 7.49136 61.7057 6.66572 62.6941 6.07386C63.6884 5.48201 64.8543 5.18608 66.1919 5.18608C67.0916 5.18608 67.929 5.33108 68.7044 5.62109C69.4856 5.90518 70.1663 6.33428 70.7463 6.90838C71.3322 7.48248 71.7879 8.20455 72.1135 9.07457C72.439 9.93868 72.6017 10.9508 72.6017 12.1108V13.1495H61.0872V10.8058H69.0417C69.0417 10.2612 68.9234 9.77888 68.6866 9.35866C68.4499 8.93845 68.1214 8.60997 67.7012 8.37322C67.2869 8.13056 66.8045 8.00923 66.2541 8.00923C65.68 8.00923 65.171 8.1424 64.7271 8.40874C64.2891 8.66915 63.9458 9.02131 63.6973 9.4652C63.4487 9.90317 63.3214 10.3915 63.3155 10.93V13.1584C63.3155 13.8331 63.4398 14.4161 63.6884 14.9073C63.9429 15.3986 64.301 15.7773 64.7626 16.0437C65.2243 16.31 65.7717 16.4432 66.405 16.4432C66.8252 16.4432 67.2099 16.384 67.5591 16.2656C67.9083 16.1473 68.2072 15.9697 68.4558 15.733C68.7044 15.4962 68.8938 15.2062 69.024 14.8629L72.5218 15.0938C72.3443 15.9342 71.9803 16.6681 71.4299 17.2955C70.8854 17.9169 70.181 18.4022 69.3169 18.7514C68.4587 19.0947 67.4674 19.2663 66.3429 19.2663ZM75.0698 19V5.36364H78.7363V7.7429H78.8784C79.127 6.89654 79.5442 6.25734 80.1301 5.82528C80.7161 5.38731 81.3908 5.16832 82.1543 5.16832C82.3437 5.16832 82.5479 5.18016 82.7669 5.20383C82.9859 5.22751 83.1782 5.26006 83.3439 5.30149V8.65731C83.1664 8.60405 82.9208 8.5567 82.6071 8.51527C82.2934 8.47384 82.0063 8.45312 81.7459 8.45312C81.1896 8.45312 80.6924 8.57446 80.2544 8.81712C79.8224 9.05386 79.4791 9.3853 79.2246 9.81143C78.976 10.2376 78.8517 10.7288 78.8517 11.2852V19H75.0698ZM98.4274 5.36364L93.66 19H89.3986L84.6312 5.36364H88.6262L91.4583 15.1204H91.6003L94.4235 5.36364H98.4274Z" fill="#6DF28A"/>
</svg>
